<svg xmlns="http://www.w3.org/2000/svg" viewBox="0 0 640 480">
  <defs>
    <clipPath id="a">
      <path fill-opacity=".7" d="M-85.3 0h682.6v512H-85.3z" />
    </clipPath>
  </defs>
  <g fill-rule="evenodd" clip-path="url(#a)" transform="translate(80) scale(.94)">
    <path fill="#009b3a" d="M-128 0h768v512h-768z" />
    <path fill="#ffdf00" d="M384 256L0 480V32z" />
    <circle cx="256" cy="256" r="90" fill="#002776" />
    <path fill="#fff"
      d="M205.3 296.4c-1.4 0-2.7-.2-4-.5-2.5-.6-4.8-1.7-6.8-3.2-2-1.5-3.7-3.4-5-5.7-1.3-2.3-2.3-4.8-2.9-7.6-.6-2.8-.9-5.6-.9-8.5 0-2.9.3-5.7.9-8.5.6-2.8 1.6-5.3 2.9-7.6 1.3-2.3 3-4.2 5-5.7 2-1.5 4.3-2.6 6.8-3.2 2.5-.6 5.1-.9 7.8-.9 2.7 0 5.3.3 7.8.9 2.5.6 4.8 1.7 6.8 3.2 2 1.5 3.7 3.4 5 5.7 1.3 2.3 2.3 4.8 2.9 7.6.6 2.8.9 5.6.9 8.5 0 2.9-.3 5.7-.9 8.5-.6 2.8-1.6 5.3-2.9 7.6-1.3 2.3-3 4.2-5 5.7-2 1.5-4.3 2.6-6.8 3.2-1.3.3-2.6.5-4 .5zm0-40.8c-1.4 0-2.7.2-4 .5-2.5.6-4.8 1.7-6.8 3.2-2 1.5-3.7 3.4-5 5.7-1.3 2.3-2.3 4.8-2.9 7.6-.6 2.8-.9 5.6-.9 8.5 0 2.9.3 5.7.9 8.5.6 2.8 1.6 5.3 2.9 7.6 1.3 2.3 3 4.2 5 5.7 2 1.5 4.3 2.6 6.8 3.2 2.5.6 5.1.9 7.8.9 2.7 0 5.3-.3 7.8-.9 2.5-.6 4.8-1.7 6.8-3.2 2-1.5 3.7-3.4 5-5.7 1.3-2.3 2.3-4.8 2.9-7.6.6-2.8.9-5.6.9-8.5 0-2.9-.3-5.7-.9-8.5-.6-2.8-1.6-5.3-2.9-7.6-1.3-2.3-3-4.2-5-5.7-2-1.5-4.3-2.6-6.8-3.2-1.3-.3-2.6-.5-4-.5z" />
  </g>
</svg>
